<svg xmlns="http://www.w3.org/2000/svg" viewBox="0 0 64 64" id="mail-error"><g data-name="Outline"><path d="M19 20A13 13 0 1 0 32 7a13 13 0 0 0-13 13ZM32 9a11 11 0 1 1-11 11A11 11 0 0 1 32 9Z"></path><path d="M28.17 26.57a1 1 0 0 0 .57.73A7.8 7.8 0 0 0 32 28a8 8 0 0 0 8-8 7.8 7.8 0 0 0-.7-3.26 1 1 0 0 0-.73-.57 1 1 0 0 0-.89.27l-9.24 9.24a1 1 0 0 0-.27.89zM37.92 19a6.24 6.24 0 0 1 .08 1 6 6 0 0 1-6 6 6.24 6.24 0 0 1-1-.08zM24.7 23.26a1 1 0 0 0 .73.57 1 1 0 0 0 .89-.27l9.24-9.24a1 1 0 0 0 .27-.89 1 1 0 0 0-.57-.73A7.8 7.8 0 0 0 32 12a8 8 0 0 0-8 8 7.8 7.8 0 0 0 .7 3.26zM32 14a6.24 6.24 0 0 1 1 .08L26.08 21a6.24 6.24 0 0 1-.08-1 6 6 0 0 1 6-6z"></path><path d="M58.4 21.83 53 18.3V5a3 3 0 0 0-3-3H36a1 1 0 0 0 0 2h14a1 1 0 0 1 1 1v27.21l-10.27 9.15-2.95-2.52a8.72 8.72 0 0 0-11.56 0l-2.9 2.56L13 32.21V5a1 1 0 0 1 1-1h14a1 1 0 0 0 0-2H14a3 3 0 0 0-3 3v13.3l-5.46 3.58A9 9 0 0 0 2 29.05V53a9.06 9.06 0 0 0 9.05 9H53a9.06 9.06 0 0 0 9-9V29.05a9 9 0 0 0-3.6-7.22ZM53 20.69l4.24 2.77a7.07 7.07 0 0 1 1.62 1.75L53 30.43ZM6.7 23.51l4.3-2.82v9.74l-5.87-5.22a6.68 6.68 0 0 1 1.57-1.7ZM4 53V29.05a6.93 6.93 0 0 1 .28-1.93l7 6.25 10.52 9.36L5.44 57.2A7 7 0 0 1 4 53Zm7.05 7a7 7 0 0 1-4.18-1.39l20.67-18.27a6.74 6.74 0 0 1 8.93 0l21 18A7 7 0 0 1 53 60Zm49-7a7 7 0 0 1-1.17 3.88L42.26 42.67l10.45-9.3 7-6.25a6.93 6.93 0 0 1 .29 1.93Z"></path><circle cx="32" cy="3" r="1"></circle></g></svg>