<svg xmlns="http://www.w3.org/2000/svg" viewBox="0 0 64 64" id="approved-mail"><g data-name="Outline"><path d="M23.1 17.79a4 4 0 0 0 0 5.66l4.24 4.24a5 5 0 0 0 7.07 0l8.49-8.48a4 4 0 0 0-5.66-5.66l-6.36 6.36-2.12-2.12a4 4 0 0 0-5.66 0ZM31.59 22l7.07-7a2 2 0 1 1 2.83 2.83L33 26.28a3.08 3.08 0 0 1-4.24 0L24.51 22a2 2 0 1 1 2.83-2.83L30.17 22a1 1 0 0 0 1.42 0Z"></path><path d="M58.4 21.83 53 18.3V5a3 3 0 0 0-3-3H36a1 1 0 0 0 0 2h14a1 1 0 0 1 1 1v27.21l-10.27 9.15-2.95-2.52a8.72 8.72 0 0 0-11.56 0l-2.9 2.56L13 32.21V5a1 1 0 0 1 1-1h14a1 1 0 0 0 0-2H14a3 3 0 0 0-3 3v13.3l-5.46 3.58A9 9 0 0 0 2 29.05V53a9.06 9.06 0 0 0 9.05 9H53a9.06 9.06 0 0 0 9-9V29.05a9 9 0 0 0-3.6-7.22ZM53 20.69l4.24 2.77a7.07 7.07 0 0 1 1.62 1.75L53 30.43ZM6.7 23.51l4.3-2.82v9.74l-5.87-5.22a6.68 6.68 0 0 1 1.57-1.7ZM4 53V29.05a6.93 6.93 0 0 1 .28-1.93l17.53 15.61L5.44 57.2A7 7 0 0 1 4 53Zm7.05 7a7 7 0 0 1-4.18-1.39l20.67-18.27a6.74 6.74 0 0 1 8.93 0l21 18A7 7 0 0 1 53 60Zm49-7a7 7 0 0 1-1.17 3.88L42.26 42.67l17.46-15.55a6.93 6.93 0 0 1 .28 1.93Z"></path><circle cx="32" cy="3" r="1"></circle></g></svg>