<svg xmlns="http://www.w3.org/2000/svg" viewBox="0 0 64 64" id="write-mail"><g data-name="Outline"><path d="M18 12a1 1 0 0 0 1 1h26a1 1 0 0 0 0-2H19a1 1 0 0 0-1 1zm16 19a1 1 0 0 0 0-2H19a1 1 0 0 0 0 2z"></path><path d="m58.4 21.83-4.12-2.69 6.43-6.44a3.84 3.84 0 1 0-5.42-5.41L53 9.59V5a3 3 0 0 0-3-3H36a1 1 0 0 0 0 2h14a1 1 0 0 1 1 1v6.59l-5.54 5.54A.91.91 0 0 0 45 17H19a1 1 0 0 0 0 2h24.59l-3.3 3.29A1.8 1.8 0 0 0 40 23H19a1 1 0 0 0 0 2h20.28l-1.23 3.68A1 1 0 0 0 39.32 30l6-2a2 2 0 0 0 .39-.24L51 22.41v9.8l-10.27 9.15-2.95-2.52a8.72 8.72 0 0 0-11.56 0l-2.9 2.56L13 32.21V5a1 1 0 0 1 1-1h14a1 1 0 0 0 0-2H14a3 3 0 0 0-3 3v13.3l-5.46 3.58A9 9 0 0 0 2 29.05V53a9.06 9.06 0 0 0 9.05 9H53a9.06 9.06 0 0 0 9-9V29.05a9 9 0 0 0-3.6-7.22ZM56.71 8.71c2.07-2.08 4.66.53 2.58 2.59l-.29.29L56.41 9ZM55 10.41 57.59 13 45 25.59 42.41 23Zm-14.42 17 .86-2.57 1.71 1.71ZM53 20.69l4.24 2.77a7.07 7.07 0 0 1 1.62 1.75L53 30.43ZM6.7 23.51l4.3-2.82v9.74l-5.87-5.22a6.68 6.68 0 0 1 1.57-1.7ZM4 53V29.05a6.93 6.93 0 0 1 .28-1.93l7 6.25 10.52 9.36L5.44 57.2A7 7 0 0 1 4 53Zm7.05 7a7 7 0 0 1-4.18-1.39l20.67-18.27a6.74 6.74 0 0 1 8.93 0l21 18A7 7 0 0 1 53 60Zm49-7a7 7 0 0 1-1.17 3.88L42.26 42.67l17.46-15.55a6.93 6.93 0 0 1 .28 1.93Z"></path><circle cx="32" cy="3" r="1"></circle></g></svg>